<?xml version="1.0" encoding="UTF-8"?>
<svg xmlns="http://www.w3.org/2000/svg" version="1.1" viewBox="0 0 100 100">
  <defs>
    <style>
      .cls-1 {
        stroke: #fff;
        stroke-linecap: round;
        stroke-linejoin: round;
      }
    </style>
  </defs>
  <!-- Generator: Adobe Illustrator 28.7.7, SVG Export Plug-In . SVG Version: 1.2.0 Build 194)  -->
  <g>
    <g id="CUI">
      <g>
        <path d="M63,83.6l-8.5,5.8h-.1c-1.2.9-1.6,2.5-.8,3.8.5.8,1.4,1.2,2.3,1.2s1-.1,1.5-.4l8.7-5.9c1.2-.8,1.5-2.5.7-3.7-.8-1.2-2.5-1.5-3.7-.7Z"/>
        <line class="cls-1" x1="42.4" y1="93.8" x2="42.4" y2="93.8"/>
        <path d="M45.4,89.4h0s-8.7-5.9-8.7-5.9c-1.3-.9-3.1-.5-3.9.9-.7,1.2-.2,2.8,1,3.6l8.5,5.8h0s0,0,0,0h0s0,0,0,0c1.3.9,3.1.5,3.9-.8.7-1.2.3-2.8-.9-3.6Z"/>
        <path d="M82.1,70.6l-8.7,5.9c-1.2.8-1.5,2.5-.7,3.7.5.8,1.4,1.2,2.2,1.2s1-.2,1.5-.5l8.7-5.9c1.2-.8,1.5-2.5.7-3.7-.8-1.2-2.5-1.5-3.7-.7Z"/>
        <path d="M26.3,76.4l-8.7-5.9c-1.2-.8-2.9-.5-3.7.7-.8,1.2-.5,2.9.7,3.7l8.7,5.9c.5.3,1,.5,1.5.5.9,0,1.7-.4,2.2-1.2.8-1.2.5-2.9-.7-3.7Z"/>
        <path d="M96.4,55.8l-.9-.6c-1.2-.8-2.9-.5-3.7.7-.8,1.2-.5,2.9.7,3.7l.9.6c.6.4.7,1.1.7,1.3s0,.9-.7,1.3l-.9.6c-1.2.8-1.5,2.5-.7,3.7.5.8,1.4,1.2,2.2,1.2s1-.2,1.5-.5l.9-.6c1.9-1.3,3.1-3.5,3.1-5.8s-1.1-4.5-3.1-5.8Z"/>
        <path d="M6.5,60.3l1-.7c1.2-.8,1.5-2.5.7-3.7-.8-1.2-2.5-1.5-3.7-.7l-1,.7c-1.9,1.3-3.1,3.5-3.1,5.8s1.1,4.5,3.1,5.8l.7.5c.5.3,1,.5,1.5.5.9,0,1.7-.4,2.2-1.2.8-1.2.5-2.9-.7-3.7l-.7-.5c-.6-.4-.7-1.1-.7-1.3s0-.9.7-1.3Z"/>
        <path d="M61.1,35.6c-2-3.8-8.2-5.8-13.7-4.4-5.6,1.4-8.5,5.6-6.4,9.4,2,3.8,8.2,5.8,13.7,4.4,5.6-1.4,8.5-5.6,6.4-9.4Z"/>
        <path d="M97.6,43.6c2.7-1.8,2.7-5.7,0-7.5L55.1,7.2c-3.1-2.1-7.2-2.1-10.3,0L2.3,36.1c-2.7,1.8-2.7,5.7,0,7.5l41.3,28c3.9,2.6,8.9,2.6,12.8,0l41.3-28ZM54.6,55.2c-.3,1-1.7,1.6-3.1,1.5l-10.5-1.3c-1.4-.2-2.4-1.1-2.2-2.1l.8-2.9c-1.7-.7-3.2-1.6-4.5-2.6l-4,1c-1.4.3-2.9-.1-3.4-1.1l-3.6-6.9c-.5-.9.2-2,1.6-2.3l4-1c0-1.3.5-2.7,1.1-3.9l-3.3-1.9c-1.1-.6-1.3-1.8-.3-2.6l6.9-5.6c.9-.8,2.7-.9,3.8-.2l3.3,1.9c1.8-.6,3.7-1.1,5.6-1.4l.8-2.8c.3-1,1.7-1.6,3.1-1.5l10.5,1.3s0,0,0,0c1.5.2,2.4,1.1,2.2,2.1l-.8,2.9c1.7.7,3.2,1.6,4.5,2.6l4-1c1.4-.3,2.9.1,3.4,1.1l3.6,6.9c.5.9-.2,2-1.6,2.3l-4,1c0,1.3-.5,2.7-1.1,3.9l3.3,1.9c1.1.6,1.3,1.8.3,2.6l-6.9,5.6c-.9.8-2.7.9-3.8.2l-3.3-1.9c-1.8.6-3.6,1.1-5.6,1.4l-.8,2.8Z"/>
      </g>
    </g>
  </g>
</svg>