<?xml version="1.0" encoding="UTF-8"?>
<svg xmlns="http://www.w3.org/2000/svg" version="1.1" viewBox="0 0 100 100">
  <defs>
    <style>
      .cls-1 {
        fill: none;
      }
    </style>
  </defs>
  <!-- Generator: Adobe Illustrator 28.7.7, SVG Export Plug-In . SVG Version: 1.2.0 Build 194)  -->
  <g>
    <g id="modio">
      <g>
        <path class="cls-1" d="M73.6,89c-.9,0-1.8.4-2.5,1-.7.7-1,1.5-1,2.5s.4,1.8,1,2.4c.7.7,1.5,1,2.5,1,1.9,0,3.5-1.6,3.5-3.5s-.4-1.8-1-2.5c-.7-.7-1.5-1-2.5-1ZM75.7,94.5h0v.2h-.9c0-.1,0-.2,0-.2,0,0,0-.2,0-.4v-.7c0-.3-.1-.4-.3-.5-.1,0-.3,0-.5,0h-1.3v1.8h0c0,.1-.1.1-.1.1h-.7v-4.5h0c0-.1.1-.1.1-.1h2.1c.4,0,.6,0,.9.2.5.2.7.6.7,1.1s0,.5-.2.7c0,.1-.2.2-.4.3.1,0,.2.1.3.2,0,.1.2.3.2.6v.6c0,.2,0,.3,0,.4,0,.1,0,.2.1.2h0Z"/>
        <path class="cls-1" d="M74.5,90.9c-.1,0-.3,0-.4,0h-1.4v1.3h1.3c.3,0,.5,0,.6-.1.1,0,.2-.3.2-.5s0-.5-.3-.6Z"/>
        <path d="M73.6,88.3c-2.3,0-4.2,1.9-4.2,4.2s.4,2.2,1.2,2.9c.8.8,1.8,1.2,2.9,1.2s2.2-.4,2.9-1.2c.8-.8,1.2-1.8,1.2-2.9s-.4-2.2-1.2-2.9c-.8-.8-1.8-1.2-2.9-1.2ZM73.6,96c-.9,0-1.8-.4-2.5-1-.7-.7-1-1.5-1-2.4s.4-1.8,1-2.5c.7-.7,1.5-1,2.5-1s1.8.4,2.5,1c.7.7,1,1.5,1,2.5,0,1.9-1.6,3.5-3.5,3.5Z"/>
        <path d="M75.5,94.2c0,0,0-.2,0-.4v-.6c0-.3,0-.5-.2-.6,0,0-.2-.2-.3-.2.1,0,.3-.2.4-.3.1-.2.2-.4.2-.7,0-.6-.2-.9-.7-1.1-.2-.1-.5-.2-.9-.2h-2.2v4.5h0c0,.1.1.1.1.1h.7v-1.9h1.3c.2,0,.4,0,.5,0,.2,0,.3.2.3.5v.7c0,.2,0,.3,0,.4,0,0,0,.1,0,.2h0c0,0,0,0,0,0h.8v-.2h0c0,0,0,0,0,0,0,0-.1,0-.1-.2ZM74.5,92c-.1,0-.4.1-.6.1h-1.3v-1.3h1.4c.2,0,.3,0,.4,0,.2,0,.3.3.3.6s0,.4-.2.5Z"/>
        <path d="M88.4,51c0-2.2.4-4.3,1.1-6.3-3.4,1-6.9,1.5-10.5,1.5s-6.6-.4-9.7-1.3c-.3,1.9-.4,3.8-.4,5.7,0,3.3.4,6.4,1.2,9.4-8.7,1.3-16.5,5.5-22.2,11.7-3.4-3.6-7.6-6.5-12.2-8.5-2.3,6.9-6.5,12.8-12,17.3,8,1.8,14,9,14,17.7h0c0,0,0,0,0,0,3.9,1,7.9,1.5,12.1,1.5s5.8-.3,8.6-.8c0,0,0,0,.1,0,.4-9.6,8.3-17.3,18.1-17.3s6.5.9,9.3,2.5c.4-.4.7-.8,1.1-1.2,4.3-4.8,7.6-10.5,9.8-16.8,0,0,0,0,0,0-5-3.2-8.3-8.8-8.3-15.2Z"/>
        <path d="M29.5,61.3c1.5-4,2.3-8.4,2.3-12.9s-.4-6-1.1-8.9c8-1.5,15.2-5.6,20.6-11.3,5.1,5.4,11.7,9.3,19.3,11,.1,0,.3,0,.4,0,2.6.6,5.3.9,8,.9,6.4,0,12.4-1.6,17.7-4.4.2-.1.4-.2.6-.4-1.9-6.3-5.1-12.1-9.2-17.1-.8.4-1.6.7-2.4,1-1.8.6-3.8,1-5.8,1-10,0-18.1-8.1-18.1-18.1s0-.3,0-.4c0,0,0,0,0,0-3.8-.9-7.8-1.4-11.9-1.4s-5.8.3-8.6.8c0,0,0,0,0,0-.4,9.6-8.4,17.3-18.1,17.3s-6.6-.9-9.3-2.6c0,0,0,0,0,0-4.8,5.1-8.5,11.2-10.9,17.9,0,0,0,0,0,0,5,3.2,8.3,8.8,8.3,15.2s-3.5,12.4-8.8,15.6h0c0,0,0,.1,0,.1,2,6.3,5.2,12.1,9.3,17.1,8.3-4.4,14.8-11.7,18-20.6,0,0,0,0,0,0Z"/>
      </g>
    </g>
  </g>
</svg>