<?xml version="1.0" encoding="UTF-8"?>
<svg xmlns="http://www.w3.org/2000/svg" version="1.1" viewBox="0 0 100 100">
  <defs>
    <style>
      .cls-1 {
        fill: none;
      }
    </style>
  </defs>
  <!-- Generator: Adobe Illustrator 28.7.7, SVG Export Plug-In . SVG Version: 1.2.0 Build 194)  -->
  <g>
    <g id="TUI">
      <g>
        <path class="cls-1" d="M86.9,10.4H12.4c-3.3,0-6,2.7-6,6v60.8c0,3.3,2.7,6,6,6h74.5c3.3,0,6-2.7,6-6V16.4c0-3.3-2.7-6-6-6ZM28.3,69.8c0,1.7-1.3,3-3,3h-7.4c-1.7,0-3-1.3-3-3v-7.4c0-1.7,1.3-3,3-3h7.4c1.7,0,3,1.3,3,3v7.4ZM28.3,47.3c0,1.7-1.3,3-3,3h-7.4c-1.7,0-3-1.3-3-3v-7.4c0-1.7,1.3-3,3-3h7.4c1.7,0,3,1.3,3,3v7.4ZM29.6,24c0,1.6-1.3,2.8-2.8,2.8h-9.6c-1.6,0-2.8-1.3-2.8-2.8v-.5c0-1.6,1.3-2.8,2.8-2.8h9.6c1.6,0,2.8,1.3,2.8,2.8v.5ZM46.9,69.8c0,1.7-1.3,3-3,3h-7.4c-1.7,0-3-1.3-3-3v-7.4c0-1.7,1.3-3,3-3h7.4c1.7,0,3,1.3,3,3v7.4ZM46.9,47.3c0,1.7-1.3,3-3,3h-7.4c-1.7,0-3-1.3-3-3v-7.4c0-1.7,1.3-3,3-3h7.4c1.7,0,3,1.3,3,3v7.4ZM49.5,24c0,1.6-1.3,2.8-2.8,2.8h-9.6c-1.6,0-2.8-1.3-2.8-2.8v-.5c0-1.6,1.3-2.8,2.8-2.8h9.6c1.6,0,2.8,1.3,2.8,2.8v.5ZM65.6,69.8c0,1.7-1.3,3-3,3h-7.4c-1.7,0-3-1.3-3-3v-7.4c0-1.7,1.3-3,3-3h7.4c1.7,0,3,1.3,3,3v7.4ZM65.6,47.3c0,1.7-1.3,3-3,3h-7.4c-1.7,0-3-1.3-3-3v-7.4c0-1.7,1.3-3,3-3h7.4c1.7,0,3,1.3,3,3v7.4ZM69.3,24c0,1.6-1.3,2.8-2.8,2.8h-9.6c-1.6,0-2.8-1.3-2.8-2.8v-.5c0-1.6,1.3-2.8,2.8-2.8h9.6c1.6,0,2.8,1.3,2.8,2.8v.5ZM84.9,69.8c0,1.7-1.3,3-3,3h-7.4c-1.7,0-3-1.3-3-3v-7.4c0-1.7,1.3-3,3-3h7.4c1.7,0,3,1.3,3,3v7.4ZM84.9,47.3c0,1.7-1.3,3-3,3h-7.4c-1.7,0-3-1.3-3-3v-7.4c0-1.7,1.3-3,3-3h7.4c1.7,0,3,1.3,3,3v7.4Z"/>
        <path d="M86.9,4.4H12.4C5.8,4.4.4,9.7.4,16.4v60.8c0,6.6,5.4,12,12,12h21.2v6.6h32.1v-6.6h21.2c6.6,0,12-5.4,12-12V16.4c0-6.6-5.4-12-12-12ZM92.9,77.1c0,3.3-2.7,6-6,6H12.4c-3.3,0-6-2.7-6-6V16.4c0-3.3,2.7-6,6-6h74.5c3.3,0,6,2.7,6,6v60.8Z"/>
        <rect x="14.4" y="20.7" width="15.3" height="6.1" rx="2.8" ry="2.8"/>
        <rect x="34.2" y="20.7" width="15.3" height="6.1" rx="2.8" ry="2.8"/>
        <rect x="54" y="20.7" width="15.3" height="6.1" rx="2.8" ry="2.8"/>
        <rect x="14.8" y="36.9" width="13.4" height="13.4" rx="3" ry="3"/>
        <rect x="33.5" y="36.9" width="13.4" height="13.4" rx="3" ry="3"/>
        <rect x="52.2" y="36.9" width="13.4" height="13.4" rx="3" ry="3"/>
        <rect x="14.8" y="59.4" width="13.4" height="13.4" rx="3" ry="3"/>
        <rect x="33.5" y="59.4" width="13.4" height="13.4" rx="3" ry="3"/>
        <rect x="52.2" y="59.4" width="13.4" height="13.4" rx="3" ry="3"/>
        <rect x="71.5" y="36.9" width="13.4" height="13.4" rx="3" ry="3"/>
        <rect x="71.5" y="59.4" width="13.4" height="13.4" rx="3" ry="3"/>
      </g>
    </g>
  </g>
</svg>