<?xml version="1.0" encoding="UTF-8"?>
<!-- Generated by Pixelmator Pro 3.2.3 -->
<svg width="318" height="331" viewBox="0 0 318 331" xmlns="http://www.w3.org/2000/svg" xmlns:xlink="http://www.w3.org/1999/xlink">
    <g id="The-modio-mark-copy">
        <path id="Registered" fill="#07c1d8" fill-rule="evenodd" stroke="none" d="M 238.041824 292.847382 C 241.728073 292.847382 245.184402 294.275909 247.786942 296.911285 C 250.389496 299.505585 251.826218 302.970215 251.826218 306.648224 C 251.826218 310.342682 250.389496 313.790802 247.786942 316.385132 C 245.184402 319.004089 241.728073 320.432648 238.041824 320.432648 C 234.355591 320.432648 230.907394 319.004089 228.296677 316.385132 C 225.694138 313.790802 224.265625 310.342682 224.265625 306.648224 C 224.265625 299.045837 230.439438 292.847382 238.041824 292.847382 Z M 226.580795 306.648224 C 226.580795 309.71051 227.77124 312.592194 229.93866 314.743164 C 232.097839 316.927002 234.987717 318.109222 238.041824 318.109222 C 244.371628 318.109222 249.502808 312.969849 249.502808 306.648224 C 249.502808 303.577728 248.320587 300.696045 246.144974 298.536835 C 243.985779 296.352997 241.095871 295.178986 238.041824 295.178986 C 234.987717 295.178986 232.097839 296.352997 229.93866 298.536835 C 227.77124 300.696045 226.580795 303.577728 226.580795 306.648224 Z M 242.204239 299.218292 C 243.714844 299.88327 244.478348 301.164001 244.478348 302.986603 C 244.478348 303.922546 244.281311 304.710693 243.879059 305.326416 C 243.591721 305.769745 243.181213 306.130981 242.72142 306.442963 C 243.082703 306.656433 243.402863 306.910919 243.640961 307.206512 C 243.96933 307.633423 244.158173 308.314819 244.182816 309.242554 C 244.182816 309.242554 244.256744 311.204712 244.256744 311.204712 C 244.281403 311.730133 244.31424 312.132416 244.396423 312.378723 C 244.478546 312.73996 244.634491 312.969849 244.831512 313.043732 C 244.831512 313.043732 245.036758 313.142334 245.036758 313.142334 C 245.036758 313.142334 245.036758 313.363983 245.036758 313.363983 C 245.036758 313.363983 245.036758 313.700592 245.036758 313.700592 C 245.036758 313.700592 245.036758 314.037201 245.036758 314.037201 C 245.036758 314.037201 244.70018 314.037201 244.70018 314.037201 C 244.70018 314.037201 242.261826 314.037201 242.261826 314.037201 C 242.261826 314.037201 242.064789 314.037201 242.064789 314.037201 C 242.064789 314.037201 241.966187 313.864868 241.966187 313.864868 C 241.884064 313.700745 241.826721 313.511841 241.76918 313.265564 C 241.728119 313.043884 241.687042 312.658051 241.662384 312.066895 C 241.662384 312.066895 241.539185 309.62854 241.539185 309.62854 C 241.506317 308.782959 241.218979 308.257507 240.677124 307.978363 C 240.340515 307.822479 239.782257 307.748505 239.026947 307.748505 C 239.026947 307.748505 234.848114 307.748505 234.848114 307.748505 C 234.848114 307.748505 234.848114 313.700684 234.848114 313.700684 C 234.848114 313.700684 234.848114 314.037292 234.848114 314.037292 C 234.848114 314.037292 234.503281 314.037292 234.503281 314.037292 C 234.503281 314.037292 232.516479 314.037292 232.516479 314.037292 C 232.516479 314.037292 232.179901 314.037292 232.179901 314.037292 C 232.179901 314.037292 232.179901 313.700684 232.179901 313.700684 C 232.179901 313.700684 232.179901 299.029602 232.179901 299.029602 C 232.179901 299.029602 232.179901 298.692993 232.179901 298.692993 C 232.179901 298.692993 232.516479 298.692993 232.516479 298.692993 C 232.516479 298.692993 239.306061 298.692993 239.306061 298.692993 C 240.471893 298.692993 241.448853 298.865326 242.204163 299.218414 Z M 234.84816 305.400299 C 234.84816 305.400299 239.100876 305.400299 239.100876 305.400299 C 239.954712 305.400299 240.636124 305.244232 241.120529 304.924133 C 241.563858 304.603943 241.777313 304.021027 241.777313 303.175446 C 241.777313 302.25592 241.473572 301.656586 240.833176 301.336426 C 240.480164 301.164093 239.987534 301.065491 239.363617 301.065491 C 239.363617 301.065491 234.84816 301.065491 234.84816 301.065491 C 234.84816 301.065491 234.84816 305.400299 234.84816 305.400299 Z"/>
        <path id="Creators" fill="#07c1d8" stroke="none" d="M 255.671051 153.685501 C 244.571152 153.685501 233.767899 152.202637 223.515274 149.491241 C 222.583328 155.676697 222.074905 162.031525 222.074905 168.471146 C 222.074905 179.27449 223.430603 189.696396 226.014893 199.694748 C 197.163727 203.889008 171.532455 217.912064 152.552551 238.24765 C 141.156113 226.385284 127.471909 216.810623 112.220238 210.159164 C 104.55201 232.824875 90.613655 252.609741 72.438728 267.353088 C 99.044456 273.453735 118.871719 297.263306 118.871719 325.733246 L 118.871719 325.90271 L 118.914024 325.90271 C 131.750854 329.122437 145.138489 330.817078 158.949783 330.817078 C 168.693985 330.817078 178.226212 329.927399 187.546707 328.275146 C 187.673874 328.232758 187.800949 328.232758 187.92804 328.232758 C 189.199036 296.373657 215.46582 270.954132 247.706268 270.954132 C 258.890839 270.954132 269.355164 274.046875 278.336761 279.384949 C 279.607666 278.071655 280.794006 276.673553 282.022614 275.275482 C 296.172729 259.26123 307.315033 240.535492 314.432434 219.860962 C 314.390045 219.818573 314.347748 219.776184 314.305359 219.776184 C 297.782684 209.100021 286.809875 190.543762 286.809875 169.403198 C 286.809875 162.116318 288.123291 155.168289 290.495697 148.728668 C 279.395905 151.948471 267.7453 153.685501 255.671051 153.685501 Z"/>
        <path id="Developers" fill="#07c1d8" stroke="none" d="M 285.411896 61.37027 C 282.827576 62.683655 280.116089 63.785095 277.362305 64.717133 C 271.346344 66.750732 264.906738 67.894684 258.170563 67.894684 C 225.082825 67.894684 198.265259 41.077087 198.265259 7.989349 C 198.265259 7.565613 198.307648 7.141968 198.307648 6.718353 C 198.265259 6.718353 198.222946 6.718353 198.180557 6.675964 C 185.5979 3.583221 172.422119 1.930969 158.865082 1.930969 C 149.12088 1.930969 139.588547 2.820648 130.310455 4.4729 C 130.225769 4.4729 130.098602 4.515289 130.013901 4.515289 C 128.658218 36.416779 102.39135 61.836304 70.150986 61.836304 C 58.924011 61.836304 48.417316 58.743561 39.435696 53.363098 C 39.393307 53.405487 39.351009 53.447876 39.308617 53.490265 C 23.421448 70.26709 11.092941 90.390915 3.382328 112.717682 C 3.340029 112.80246 3.340029 112.844788 3.297636 112.929565 C 19.820305 123.605728 30.793119 142.161987 30.793119 163.302536 C 30.793119 185.163284 19.100113 204.270264 1.602997 214.734665 L 1.602997 214.777054 C 1.645387 214.904144 1.687778 215.073608 1.73008 215.200684 C 8.254473 236.171768 18.845947 255.363525 32.614838 271.801422 C 60.025539 257.354736 81.420258 233.121429 92.138817 203.719543 C 92.181213 203.634857 92.223602 203.550064 92.223602 203.465378 C 97.053261 190.162521 99.679962 175.80043 99.679962 160.802933 C 99.679962 150.719879 98.451347 140.890976 96.205986 131.485794 C 122.811714 126.44429 146.4095 113.014252 164.203171 94.076752 C 181.022385 111.997513 203.052628 124.961426 227.878998 130.553741 C 228.302643 130.638428 228.726364 130.723221 229.150009 130.807907 C 237.665512 132.629654 246.519958 133.646408 255.586273 133.646408 C 276.769196 133.646408 296.681152 128.393097 314.178284 119.114914 C 314.771393 118.733658 315.364502 118.310028 316 117.928711 C 309.602783 96.999985 299.096008 77.808243 285.411896 61.37027 Z"/>
    </g>
</svg>
